<?xml version="1.0" encoding="utf-8"?>
<!-- Generator: Adobe Illustrator 22.1.0, SVG Export Plug-In . SVG Version: 6.00 Build 0)  -->
<svg version="1.1" id="Layer_1" xmlns="http://www.w3.org/2000/svg" xmlns:xlink="http://www.w3.org/1999/xlink" x="0px" y="0px"
	 viewBox="0 0 500 81" style="enable-background:new 0 0 500 81;" xml:space="preserve">
<style type="text/css">
	.st0{fill:#333333;}
	.st1{fill:#86BFCA;}
	.st2{fill:#FBFBFD;}
	.st3{fill:#FFFFFF;}
</style>
<g>
	<path class="st0" d="M35.8,6.8l0.8,13.7H36C35,17,33.4,14,31.3,11.4C29,8.5,26.5,7.1,24,7.1c-1.1,0-2.2,0.3-3.1,1
		c-0.9,0.7-1.7,1.6-2.2,2.8c-1.4,3.2-2.2,7.7-2.2,13.6c0,3.2,0.2,5.8,0.7,8c0.5,2.2,1.2,4.1,2.3,5.7c0.8,1.2,2,2.2,3.4,2.8
		c0.8,0.3,1.6,0.5,2.4,0.5c2.6,0,5-1.8,7.5-5.4c1.7-2.5,2.9-5.4,3.8-8.8H37L36.6,42H36c0-0.7-0.4-1.1-1.1-1.1
		c-0.3,0-1.2,0.1-2.4,0.4l-1.2,0.2c-2.4,0.5-4.5,0.7-6.3,0.7c-2.5,0-4.9-0.4-7.2-1.3c-2.4-0.9-4.4-2-6.1-3.6
		c-1.8-1.6-3.3-3.5-4.3-5.7c-1.1-2.4-1.6-4.8-1.6-7.4c0-3.8,1.1-7.2,3.4-10.3c2-2.8,4.7-4.8,7.9-6.1c2.3-0.9,4.8-1.4,7.3-1.4
		c2,0,4.3,0.3,7,0.9c1.3,0.3,2.2,0.5,2.8,0.5c0.6,0,1.1-0.3,1.3-1H35.8z"/>
	<path class="st0" d="M70.2,28.3H59.8c-0.9,2.4-1.3,4.4-1.3,6.2c0,2.1,0.6,3.7,1.7,4.9c0.9,0.9,2,1.4,3.4,1.5v0.5H47.7v-0.5
		c2.3-0.3,4.5-1.7,6.5-4.1c1.9-2.3,3.6-5.2,4.9-8.8l5.2-13.7c-0.5-1-1.2-1.9-2-2.7c1.5-0.7,3.1-1.9,5-3.6c1.4-1.3,2.6-2.6,3.8-4
		c0.9,2.6,1.8,4.9,2.7,6.9l6.7,16c2.9,6.9,4.7,10.6,5.3,11.1c0.9,1.3,2,2.2,3.1,2.6c0.5,0.1,1.1,0.2,1.8,0.3v0.5H69.8v-0.5
		c2.5-0.1,3.7-1.1,3.7-2.9c0-1.3-0.7-3.7-2.2-7.1L70.2,28.3z M70,27.7l-5.3-12.8L60,27.7H70z"/>
	<path class="st0" d="M114.2,26.7v5.9c0,2.6,0.1,4.4,0.3,5.3c0.3,1.3,1,2.1,2.3,2.5c0.7,0.2,1.7,0.4,2.9,0.5v0.5H99.3v-0.5
		c1.9-0.1,3.2-0.6,3.9-1.5c0.5-0.6,0.8-1.6,0.9-3c0.1-0.5,0.1-1.8,0.1-3.9V15.9c0-2.6-0.1-4.4-0.3-5.3c-0.3-1.3-0.9-2.2-2-2.5
		c-0.6-0.2-1.5-0.4-2.5-0.5V7.1h17.6c4.6,0,8.4,0.7,11.4,2.2c1.8,0.9,3.2,2.2,4.1,3.9c0.6,1.1,1,2.4,1,3.7c0,2.2-0.9,4.2-2.6,5.8
		c-1.8,1.7-4.2,2.8-7.4,3.5c-1.9,0.4-4.4,0.6-7.6,0.6H114.2z M114.2,26.1h1.3c2.6,0,4.3-0.6,5.3-1.9c1.1-1.5,1.7-4,1.7-7.5
		c0-3.1-0.5-5.4-1.6-6.9c-1-1.4-2.7-2.1-5.3-2.1h-1.4V26.1z"/>
	<path class="st0" d="M148.5,32.6V15.9c0-2.6-0.1-4.4-0.3-5.3c-0.3-1.3-0.9-2.2-2-2.5c-0.6-0.2-1.5-0.4-2.5-0.5V7.1h19.8v0.5
		c-1.9,0.1-3.2,0.6-3.9,1.4c-0.5,0.6-0.7,1.6-0.9,3c-0.1,0.5-0.1,1.8-0.1,3.9v16.7c0,2.6,0.1,4.4,0.3,5.3c0.3,1.3,0.9,2.2,2,2.5
		c0.6,0.2,1.5,0.4,2.5,0.5v0.5h-19.8v-0.5c1.9-0.1,3.2-0.6,3.9-1.5c0.5-0.6,0.8-1.6,0.9-3C148.5,36,148.5,34.7,148.5,32.6z"/>
	<path class="st0" d="M195.7,7.6v25c0,2.6,0.1,4.4,0.3,5.3c0.3,1.3,1,2.1,2.3,2.5c0.7,0.2,1.6,0.4,2.9,0.5v0.5H180v-0.5
		c2.2-0.1,3.7-0.6,4.4-1.5c0.5-0.6,0.8-1.6,1-3c0-0.5,0.1-1.8,0.1-3.9v-25c-2.6,0.5-5.2,1.9-7.8,4.2c-1.9,1.8-3.3,3.7-4.2,5.8h-0.5
		l1.5-12c0.8,0.8,1.7,1.2,2.7,1.4c0.9,0.1,2.5,0.2,4.9,0.2h17.4c2,0,3.5-0.1,4.5-0.2c0.9-0.2,1.7-0.6,2.6-1.3l1.4,12h-0.5
		c-1-2.5-2.7-4.8-5.2-6.8C200,9,197.8,7.9,195.7,7.6z"/>
	<path class="st0" d="M237.3,6.4c4.4,0,8.4,1.5,12,4.4c4.4,3.5,6.6,8,6.6,13.5c0,5.5-2.2,10-6.6,13.5c-3.6,2.9-7.7,4.4-12.2,4.4
		c-4.6,0-8.6-1.5-12.2-4.4c-4.3-3.5-6.5-8-6.5-13.5c0-5.6,2.2-10.1,6.5-13.6C228.5,7.8,232.7,6.4,237.3,6.4z M237,7.1
		c-1.7,0-3.1,0.7-4.4,2c-2,2.2-3.1,7.3-3.1,15.2c0,5.7,0.6,10.1,1.8,13.1c0.5,1.3,1.4,2.4,2.6,3.2c0.9,0.6,2,0.9,3.2,0.9
		c1.8,0,3.3-0.7,4.5-2c2-2.2,3.1-7.2,3.1-15c0-6-0.6-10.4-1.7-13.3c-0.5-1.3-1.3-2.3-2.3-3C239.6,7.4,238.4,7.1,237,7.1z"/>
	<path class="st0" d="M301.3,26l-3.1,15.4h-31.5v-0.5c1.9-0.1,3.2-0.6,3.9-1.5c0.5-0.6,0.8-1.6,0.9-3c0.1-0.5,0.1-1.8,0.1-3.9V15.9
		c0-2.6-0.1-4.4-0.3-5.3c-0.3-1.3-0.9-2.2-2-2.5c-0.6-0.2-1.5-0.4-2.5-0.5V7.1h19.8v0.5c-1.9,0.1-3.2,0.6-3.9,1.4
		c-0.5,0.6-0.7,1.6-0.9,3c-0.1,0.5-0.1,1.8-0.1,3.9V35c0,2.2,0.2,3.6,0.5,4.4c0.5,1,1.6,1.5,3.3,1.5c3.6,0,7-1.8,10.2-5.5
		c2.1-2.5,3.9-5.6,5.1-9.4H301.3z"/>
	<path class="st0" d="M347.7,23h11.2v-8.5c0-1.6,0-2.7-0.1-3.4c-0.1-0.7-0.3-1.3-0.6-1.8c-0.6-0.9-1.6-1.5-3.1-1.7V7.1h18.7v0.5
		c-1.9,0.1-3.2,0.6-3.9,1.4c-0.5,0.6-0.8,1.6-0.9,3c0,0.5-0.1,1.8-0.1,3.9v16.7c0,2.6,0.1,4.4,0.3,5.3c0.3,1.3,0.9,2.2,2,2.5
		c0.6,0.2,1.4,0.4,2.5,0.5v0.5h-18.7v-0.5c1.5-0.2,2.5-0.7,3.1-1.7c0.4-0.7,0.6-1.6,0.7-2.8c0-0.7,0.1-1.5,0.1-2.4V23.6h-11.2V34
		c0,1.5,0,2.6,0.1,3.4c0.2,1.3,0.6,2.3,1.4,2.8c0.5,0.4,1.2,0.6,2.2,0.8v0.5h-18.7v-0.5c1.9-0.1,3.2-0.6,3.9-1.5
		c0.5-0.6,0.8-1.6,0.9-3c0.1-0.5,0.1-1.8,0.1-3.9V15.9c0-2.6-0.1-4.4-0.3-5.3c-0.3-1.3-0.9-2.2-2-2.5c-0.6-0.2-1.5-0.4-2.5-0.5V7.1
		h18.7v0.5c-1.5,0.2-2.5,0.7-3.1,1.7c-0.4,0.7-0.6,1.6-0.7,2.8c0,0.6,0,1.4,0,2.4V23z"/>
	<path class="st0" d="M388.6,32.6V15.9c0-2.6-0.1-4.4-0.3-5.3c-0.3-1.3-0.9-2.2-2-2.5c-0.6-0.2-1.5-0.4-2.5-0.5V7.1h19.8v0.5
		c-1.9,0.1-3.2,0.6-3.9,1.4c-0.5,0.6-0.7,1.6-0.9,3c-0.1,0.5-0.1,1.8-0.1,3.9v16.7c0,2.6,0.1,4.4,0.3,5.3c0.3,1.3,0.9,2.2,2,2.5
		c0.6,0.2,1.5,0.4,2.5,0.5v0.5h-19.8v-0.5c1.9-0.1,3.2-0.6,3.9-1.5c0.5-0.6,0.8-1.6,0.9-3C388.6,36,388.6,34.7,388.6,32.6z"/>
	<path class="st0" d="M448.1,26l-3.1,15.4h-31.5v-0.5c1.9-0.1,3.2-0.6,3.9-1.5c0.5-0.6,0.8-1.6,0.9-3c0.1-0.5,0.1-1.8,0.1-3.9V15.9
		c0-2.6-0.1-4.4-0.3-5.3c-0.3-1.3-0.9-2.2-2-2.5c-0.6-0.2-1.5-0.4-2.5-0.5V7.1h19.8v0.5c-1.9,0.1-3.2,0.6-3.9,1.4
		c-0.5,0.6-0.7,1.6-0.9,3c-0.1,0.5-0.1,1.8-0.1,3.9V35c0,2.2,0.2,3.6,0.5,4.4c0.5,1,1.6,1.5,3.3,1.5c3.6,0,7-1.8,10.2-5.5
		c2.2-2.5,3.9-5.6,5.1-9.4H448.1z"/>
	<path class="st0" d="M492,26l-3.1,15.4h-31.5v-0.5c1.9-0.1,3.2-0.6,3.9-1.5c0.5-0.6,0.8-1.6,0.9-3c0.1-0.5,0.1-1.8,0.1-3.9V15.9
		c0-2.6-0.1-4.4-0.3-5.3c-0.3-1.3-0.9-2.2-2-2.5c-0.6-0.2-1.5-0.4-2.5-0.5V7.1h19.8v0.5c-1.9,0.1-3.2,0.6-3.9,1.4
		c-0.5,0.6-0.7,1.6-0.9,3c-0.1,0.5-0.1,1.8-0.1,3.9V35c0,2.2,0.2,3.6,0.5,4.4c0.5,1,1.6,1.5,3.3,1.5c3.6,0,7-1.8,10.2-5.5
		c2.2-2.5,3.9-5.6,5.1-9.4H492z"/>
</g>
<g>
	<path class="st0" d="M132.3,66.2c0.4,0.5,0.6,1.2,0.6,2c0,1.1-0.4,1.9-1.3,2.5c-0.8,0.6-2.1,0.9-3.7,0.9h-6.3V59.1h5.9
		c1.5,0,2.6,0.3,3.4,0.9c0.8,0.6,1.2,1.4,1.2,2.4c0,0.6-0.1,1.2-0.4,1.7c-0.3,0.5-0.7,0.9-1.2,1.1C131.4,65.3,131.9,65.7,132.3,66.2
		z M124.1,60.9v3.5h3.3c0.8,0,1.4-0.1,1.9-0.4c0.4-0.3,0.7-0.7,0.7-1.3c0-0.6-0.2-1-0.7-1.3c-0.4-0.3-1.1-0.4-1.9-0.4H124.1z
		 M130.6,68c0-1.2-0.9-1.8-2.7-1.8h-3.8v3.6h3.8C129.7,69.8,130.6,69.2,130.6,68z"/>
	<path class="st0" d="M139.3,70.4c-1-1-1.5-2.4-1.5-4.2v-7.1h2.3v7c0,2.5,1.1,3.7,3.2,3.7c2.1,0,3.2-1.2,3.2-3.7v-7h2.3v7.1
		c0,1.8-0.5,3.2-1.4,4.2c-1,1-2.3,1.5-4.1,1.5C141.6,71.8,140.3,71.3,139.3,70.4z"/>
	<path class="st0" d="M155.8,71.4c-0.9-0.3-1.6-0.6-2.1-1.1l0.8-1.8c0.5,0.4,1.1,0.7,1.9,1c0.7,0.3,1.5,0.4,2.3,0.4
		c0.9,0,1.6-0.1,2.1-0.4c0.5-0.3,0.7-0.7,0.7-1.2c0-0.4-0.1-0.7-0.4-0.9c-0.3-0.2-0.6-0.4-1-0.5c-0.4-0.1-0.9-0.3-1.6-0.5
		c-1-0.2-1.7-0.5-2.3-0.7s-1.1-0.6-1.5-1.1c-0.4-0.5-0.6-1.1-0.6-2c0-0.7,0.2-1.3,0.6-1.9s0.9-1,1.7-1.4c0.8-0.3,1.7-0.5,2.8-0.5
		c0.8,0,1.5,0.1,2.3,0.3c0.7,0.2,1.4,0.5,1.9,0.8l-0.7,1.8c-0.6-0.3-1.1-0.6-1.7-0.7c-0.6-0.2-1.2-0.3-1.7-0.3
		c-0.9,0-1.6,0.2-2.1,0.5c-0.4,0.3-0.7,0.7-0.7,1.2c0,0.4,0.1,0.7,0.4,0.9c0.3,0.2,0.6,0.4,1,0.5s0.9,0.3,1.6,0.4
		c0.9,0.2,1.7,0.4,2.3,0.7c0.6,0.2,1.1,0.6,1.5,1.1c0.4,0.5,0.6,1.1,0.6,1.9c0,0.7-0.2,1.3-0.6,1.9c-0.4,0.6-0.9,1-1.7,1.3
		c-0.8,0.3-1.7,0.5-2.8,0.5C157.6,71.8,156.7,71.7,155.8,71.4z"/>
	<path class="st0" d="M168.5,59.1h2.3v12.6h-2.3V59.1z"/>
	<path class="st0" d="M187.9,59.1v12.6H186l-6.9-8.5v8.5h-2.3V59.1h1.9l6.9,8.5v-8.5H187.9z"/>
	<path class="st0" d="M203.3,69.7v2h-9.4V59.1h9.2v2h-6.8v3.3h6.1v1.9h-6.1v3.5H203.3z"/>
	<path class="st0" d="M209.5,71.4c-0.9-0.3-1.6-0.6-2.1-1.1l0.8-1.8c0.5,0.4,1.1,0.7,1.9,1c0.7,0.3,1.5,0.4,2.3,0.4
		c0.9,0,1.6-0.1,2.1-0.4c0.5-0.3,0.7-0.7,0.7-1.2c0-0.4-0.1-0.7-0.4-0.9c-0.3-0.2-0.6-0.4-1-0.5c-0.4-0.1-0.9-0.3-1.6-0.5
		c-1-0.2-1.7-0.5-2.3-0.7s-1.1-0.6-1.5-1.1c-0.4-0.5-0.6-1.1-0.6-2c0-0.7,0.2-1.3,0.6-1.9c0.4-0.6,0.9-1,1.7-1.4
		c0.8-0.3,1.7-0.5,2.8-0.5c0.8,0,1.5,0.1,2.3,0.3c0.7,0.2,1.4,0.5,1.9,0.8l-0.7,1.8c-0.6-0.3-1.1-0.6-1.7-0.7
		c-0.6-0.2-1.2-0.3-1.7-0.3c-0.9,0-1.6,0.2-2.1,0.5c-0.4,0.3-0.7,0.7-0.7,1.2c0,0.4,0.1,0.7,0.4,0.9c0.3,0.2,0.6,0.4,1,0.5
		s0.9,0.3,1.6,0.4c0.9,0.2,1.7,0.4,2.3,0.7c0.6,0.2,1.1,0.6,1.5,1.1c0.4,0.5,0.6,1.1,0.6,1.9c0,0.7-0.2,1.3-0.6,1.9
		c-0.4,0.6-0.9,1-1.7,1.3c-0.8,0.3-1.7,0.5-2.8,0.5C211.3,71.8,210.4,71.7,209.5,71.4z"/>
	<path class="st0" d="M223.3,71.4c-0.9-0.3-1.6-0.6-2.1-1.1l0.8-1.8c0.5,0.4,1.1,0.7,1.9,1c0.7,0.3,1.5,0.4,2.3,0.4
		c0.9,0,1.6-0.1,2.1-0.4c0.5-0.3,0.7-0.7,0.7-1.2c0-0.4-0.1-0.7-0.4-0.9c-0.3-0.2-0.6-0.4-1-0.5c-0.4-0.1-0.9-0.3-1.6-0.5
		c-1-0.2-1.7-0.5-2.3-0.7c-0.6-0.2-1.1-0.6-1.5-1.1c-0.4-0.5-0.6-1.1-0.6-2c0-0.7,0.2-1.3,0.6-1.9s0.9-1,1.7-1.4
		c0.8-0.3,1.7-0.5,2.8-0.5c0.8,0,1.5,0.1,2.3,0.3c0.7,0.2,1.4,0.5,1.9,0.8l-0.7,1.8c-0.6-0.3-1.1-0.6-1.7-0.7
		c-0.6-0.2-1.2-0.3-1.7-0.3c-0.9,0-1.6,0.2-2.1,0.5c-0.4,0.3-0.7,0.7-0.7,1.2c0,0.4,0.1,0.7,0.4,0.9c0.3,0.2,0.6,0.4,1,0.5
		s0.9,0.3,1.6,0.4c0.9,0.2,1.7,0.4,2.3,0.7c0.6,0.2,1.1,0.6,1.5,1.1c0.4,0.5,0.6,1.1,0.6,1.9c0,0.7-0.2,1.3-0.6,1.9
		c-0.4,0.6-0.9,1-1.7,1.3c-0.8,0.3-1.7,0.5-2.8,0.5C225.1,71.8,224.2,71.7,223.3,71.4z"/>
	<path class="st0" d="M245.8,61v3.8h6.1v2h-6.1v4.8h-2.3V59.1h9.2v2H245.8z"/>
	<path class="st0" d="M259.7,71c-1-0.6-1.8-1.3-2.4-2.3c-0.6-1-0.9-2.1-0.9-3.3c0-1.2,0.3-2.3,0.9-3.3c0.6-1,1.4-1.8,2.4-2.3
		c1-0.6,2.2-0.8,3.5-0.8c1.3,0,2.4,0.3,3.5,0.8c1,0.6,1.8,1.3,2.4,2.3c0.6,1,0.9,2.1,0.9,3.3c0,1.2-0.3,2.3-0.9,3.3
		c-0.6,1-1.4,1.8-2.4,2.3c-1,0.6-2.2,0.8-3.5,0.8C261.9,71.8,260.8,71.5,259.7,71z M265.5,69.2c0.7-0.4,1.2-0.9,1.6-1.6
		c0.4-0.7,0.6-1.4,0.6-2.3c0-0.8-0.2-1.6-0.6-2.3c-0.4-0.7-0.9-1.2-1.6-1.6c-0.7-0.4-1.4-0.6-2.3-0.6c-0.8,0-1.6,0.2-2.3,0.6
		c-0.7,0.4-1.2,0.9-1.6,1.6c-0.4,0.7-0.6,1.4-0.6,2.3c0,0.8,0.2,1.6,0.6,2.3c0.4,0.7,0.9,1.2,1.6,1.6c0.7,0.4,1.4,0.6,2.3,0.6
		C264.1,69.8,264.8,69.6,265.5,69.2z"/>
	<path class="st0" d="M283.2,71.6l-2.6-3.7c-0.1,0-0.3,0-0.5,0h-2.8v3.7H275V59.1h5.2c1.1,0,2,0.2,2.8,0.5c0.8,0.4,1.4,0.9,1.9,1.5
		c0.4,0.7,0.6,1.5,0.6,2.4c0,0.9-0.2,1.8-0.7,2.4c-0.5,0.7-1.1,1.2-2,1.5l2.9,4.1H283.2z M282.4,61.7c-0.5-0.4-1.3-0.6-2.3-0.6h-2.7
		v5h2.7c1,0,1.8-0.2,2.3-0.7c0.5-0.4,0.8-1.1,0.8-1.9C283.2,62.7,282.9,62.1,282.4,61.7z"/>
	<path class="st0" d="M302.2,71.6l0-8.3l-4.1,6.9h-1l-4.1-6.8v8.2h-2.2V59.1h1.9l5,8.3l4.9-8.3h1.9l0,12.6H302.2z"/>
	<path class="st0" d="M318.5,68.7h-6.3l-1.2,2.9h-2.4l5.7-12.6h2.3l5.7,12.6h-2.4L318.5,68.7z M317.7,66.9l-2.4-5.5l-2.4,5.5H317.7z
		"/>
	<path class="st0" d="M328.2,61h-4.2v-2h10.7v2h-4.2v10.6h-2.3V61z"/>
	<path class="st0" d="M339,59.1h2.3v12.6H339V59.1z"/>
	<path class="st0" d="M349.7,71c-1-0.6-1.8-1.3-2.4-2.3c-0.6-1-0.9-2.1-0.9-3.3c0-1.2,0.3-2.3,0.9-3.3c0.6-1,1.4-1.8,2.4-2.3
		c1-0.6,2.2-0.8,3.5-0.8c1.3,0,2.4,0.3,3.5,0.8c1,0.6,1.8,1.3,2.4,2.3c0.6,1,0.9,2.1,0.9,3.3c0,1.2-0.3,2.3-0.9,3.3
		c-0.6,1-1.4,1.8-2.4,2.3c-1,0.6-2.2,0.8-3.5,0.8C351.9,71.8,350.7,71.5,349.7,71z M355.4,69.2c0.7-0.4,1.2-0.9,1.6-1.6
		c0.4-0.7,0.6-1.4,0.6-2.3c0-0.8-0.2-1.6-0.6-2.3c-0.4-0.7-0.9-1.2-1.6-1.6c-0.7-0.4-1.4-0.6-2.3-0.6c-0.8,0-1.6,0.2-2.3,0.6
		c-0.7,0.4-1.2,0.9-1.6,1.6c-0.4,0.7-0.6,1.4-0.6,2.3c0,0.8,0.2,1.6,0.6,2.3c0.4,0.7,0.9,1.2,1.6,1.6c0.7,0.4,1.4,0.6,2.3,0.6
		C354,69.8,354.7,69.6,355.4,69.2z"/>
	<path class="st0" d="M376.1,59.1v12.6h-1.9l-6.9-8.5v8.5h-2.3V59.1h1.9l6.9,8.5v-8.5H376.1z"/>
</g>
<g>
	
		<rect x="396.5" y="62" transform="matrix(0.7071 0.7071 -0.7071 0.7071 163.2646 -263.5918)" class="st1" width="6.7" height="6.7"/>
</g>
<g>
	<rect x="92.7" y="62" transform="matrix(0.7071 0.7071 -0.7071 0.7071 74.2751 -48.7521)" class="st1" width="6.7" height="6.7"/>
</g>
<path d="M2185.7-621.8c9-2.7,18-5.3,27.1-8c0-0.6-0.1-1.1-0.1-1.7c-8-1.1-16-2.6-24-3.4c-21.1-1.9-42.2-3.4-63.2-5.1
	c-2.3-0.2-4.6-0.5-6.9-0.9c-11.2-2-13.5-4.8-13.6-16.4c0-2.5-0.1-5.1-0.9-7.4c-0.8-2.1-2.2-4.2-4-5.5c-4.8-3.5-9.9-6.6-14.9-9.8
	c-4.7-3.1-9.3-6.4-14.2-9.1c-7.2-3.9-10.6-9.9-10.8-17.8c-0.2-7.1,0-14.3,0-22c-6.2-1.3-12.7-2.6-19.1-4.2
	c-4.3-1.1-8.7-2.5-12.7-4.3c-3.6-1.6-6.4-4.3-6-8.9c1.1-13.7,2.2-27.5,3.4-41.2c1-11.6,5.9-21.3,14.2-29.4
	c22.1-21.5,43.9-43.2,66.1-64.6c48.1-46.6,96.4-93,144.4-139.7c13.3-12.9,28.3-18.2,46.4-13.6c7.9,2,14.5,6.5,20.2,12.4
	c30.2,30.8,60.5,61.5,90.8,92.2c49.3,50.1,98.6,100.2,147.9,150.3c44.8,45.5,89.5,90.9,134.3,136.4c18.7,19,18.6,45.5-0.2,64.7
	c-51.9,53-103.8,105.9-155.7,158.8c-66.5,67.8-132.9,135.6-199.4,203.5c-13.7,14-36.2,10.7-42.6-7c-2.6-7-2.7-15-3.9-22.5
	c-4.1-25.4-8.9-50.5-21.5-73.3c-3.2-5.8-7.2-11.2-11.2-16.5c-6.9-9.1-5.6-14.4,4.9-18.8c16.6-6.9,30.5-17,39.5-32.9
	c0.9-1.6,1.6-3.3,2.2-5c4.1-11.9,8.2-23.8,12.4-35.7c2.5-7.2,1.8-11.4-4.4-15.8c-27-19-36.1-46.6-38-77.7c-0.2-4.2-2-7-6-7.3
	c-5.9-0.4-11.8-0.1-17.7,0.5c-1.5,0.1-3.2,2.2-4.2,3.8c-6.9,11.4-20.9,11.3-27.4-0.3c-5-8.9-4.7-18.7-3.4-28.3
	c3.3-24.4-5-44.4-21.6-61.7c-1.8-1.9-3.8-3.7-5.7-5.6C2185.8-621,2185.8-621.4,2185.7-621.8z M2267.1-342
	c9.2,11.4,15.9,24.5,20.9,38.6c8,22.6,11.9,46,14.7,69.7c0.7,5.8,2.6,10.4,8.5,12.3c5.9,1.9,10.4-0.4,14.7-4.8
	c35-35.9,70.1-71.7,105.2-107.5c48.4-49.4,96.8-98.7,145.2-148.1c34.4-35.1,68.8-70.1,103.1-105.3c3.3-3.4,6.6-7.3,8.4-11.6
	c6.1-14.5,1.7-26.6-9.1-37.5c-39.1-39.3-77.9-78.9-116.8-118.5c-51.4-52.3-102.7-104.6-154.1-156.8c-33.2-33.7-66.5-67.3-99.7-101
	c-14.1-14.3-32.6-14.7-47-0.8c-40.5,39.1-81.1,78.1-121.5,117.3c-30.4,29.4-60.5,59.1-90.8,88.7c-7.8,7.6-11.2,16.6-10.1,27.5
	c0.3,2.8-0.1,5.6-0.4,8.4c-0.8,7.8-1.7,15.5-2.7,24c9.8,2.1,19,4,28.2,6.1c8.3,1.9,10.7,5.5,9.9,13.9c-0.5,6-0.5,12-0.8,18
	c-0.3,4.9,1.7,8,6.1,10.3c5,2.6,9.5,6.1,14.2,9.2c4.4,2.9,8.7,6.1,13.4,8.4c5,2.5,8.5,5.9,9.5,11.4c1,5.2,1.6,10.5,2.4,16.1
	c1.7,0.3,3.6,0.9,5.5,1c17.7,1.4,35.5,2.4,53.2,4.3c14.4,1.5,28.6,3.9,42.8,6.5c5.1,0.9,9.8,4.1,10.4,10.1c0.6,5.9-3.7,8.9-8,11.7
	c-1,0.6-2,1.2-3.1,1.6c-3.2,1.4-6.3,2.7-9.7,4.2c0.6,1,1,1.7,1.5,2.4c12.6,18.3,18.2,38.3,14.9,60.5c-0.7,4.4-0.6,9,0,13.5
	c0.4,3.2,2.1,6.2,3.1,9.1c4.7-4.2,8.1-8.5,12.6-10.8c8.2-4.3,17.4-4.4,26.3-2c12,3.2,16,8.6,16.7,21c0.4,6,1,12,2.3,17.8
	c4.4,19.5,12.3,36.8,29.9,48.3c3.5,2.3,6.3,6,8.5,9.6c5.6,9,2.6,17.9-1,26.7c-2.6,6.3-6.2,12.5-7.3,19c-3,17.5-12.3,30.8-25.8,41.4
	C2284-352.3,2275.6-347.6,2267.1-342z"/>
<path class="st2" d="M2267.1-342c8.4-5.6,16.9-10.3,24.4-16.2c13.5-10.6,22.7-23.9,25.8-41.4c1.1-6.6,4.8-12.7,7.3-19
	c3.6-8.8,6.7-17.8,1-26.7c-2.3-3.6-5-7.4-8.5-9.6c-17.6-11.5-25.5-28.9-29.9-48.3c-1.3-5.8-2-11.8-2.3-17.8
	c-0.7-12.3-4.7-17.8-16.7-21c-8.9-2.4-18.1-2.3-26.3,2c-4.5,2.3-7.9,6.7-12.6,10.8c-1-2.9-2.7-5.9-3.1-9.1c-0.5-4.4-0.6-9.1,0-13.5
	c3.4-22.3-2.3-42.2-14.9-60.5c-0.5-0.7-0.9-1.4-1.5-2.4c3.3-1.4,6.5-2.8,9.7-4.2c1.1-0.5,2.1-1,3.1-1.6c4.3-2.8,8.6-5.8,8-11.7
	c-0.6-6-5.3-9.2-10.4-10.1c-14.2-2.6-28.5-5-42.8-6.5c-17.7-1.9-35.5-2.9-53.2-4.3c-1.9-0.2-3.9-0.7-5.5-1
	c-0.8-5.6-1.5-10.9-2.4-16.1c-1-5.5-4.5-8.9-9.5-11.4c-4.7-2.3-9-5.5-13.4-8.4c-4.7-3.1-9.3-6.5-14.2-9.2c-4.4-2.3-6.4-5.4-6.1-10.3
	c0.4-6,0.3-12,0.8-18c0.8-8.3-1.6-12-9.9-13.9c-9.2-2.1-18.5-4-28.2-6.1c1-8.5,1.9-16.2,2.7-24c0.3-2.8,0.6-5.7,0.4-8.4
	c-1.1-10.9,2.4-19.9,10.1-27.5c30.3-29.5,60.5-59.2,90.8-88.7c40.4-39.2,81-78.2,121.5-117.3c14.4-13.9,32.9-13.5,47,0.8
	c33.2,33.7,66.5,67.3,99.7,101c51.4,52.2,102.7,104.6,154.1,156.8c38.9,39.5,77.7,79.1,116.8,118.5c10.8,10.9,15.2,23,9.1,37.5
	c-1.8,4.3-5.1,8.2-8.4,11.6c-34.3,35.2-68.7,70.3-103.1,105.3c-48.4,49.4-96.8,98.7-145.2,148.1c-35.1,35.8-70.2,71.6-105.2,107.5
	c-4.2,4.4-8.8,6.7-14.7,4.8c-5.8-1.9-7.8-6.5-8.5-12.3c-2.8-23.7-6.8-47.1-14.7-69.7C2283-317.5,2276.4-330.6,2267.1-342z"/>
<path class="st3" d="M3215.1-342c8.4-5.6,16.9-10.3,24.4-16.2c13.5-10.6,22.7-23.9,25.8-41.4c1.1-6.6,4.8-12.7,7.3-19
	c3.6-8.8,6.7-17.8,1-26.7c-2.3-3.6-5-7.4-8.5-9.6c-17.6-11.5-25.5-28.9-29.9-48.3c-1.3-5.8-2-11.8-2.3-17.8
	c-0.7-12.3-4.7-17.8-16.7-21c-8.9-2.4-18.1-2.3-26.3,2c-4.5,2.3-7.9,6.7-12.6,10.8c-1-2.9-2.7-5.9-3.1-9.1c-0.5-4.4-0.6-9.1,0-13.5
	c3.4-22.3-2.3-42.2-14.9-60.5c-0.5-0.7-0.9-1.4-1.5-2.4c3.3-1.4,6.5-2.8,9.7-4.2c1.1-0.5,2.1-1,3.1-1.6c4.3-2.8,8.6-5.8,8-11.7
	c-0.6-6-5.3-9.2-10.4-10.1c-14.2-2.6-28.5-5-42.8-6.5c-17.7-1.9-35.5-2.9-53.2-4.3c-1.9-0.2-3.9-0.7-5.5-1
	c-0.8-5.6-1.5-10.9-2.4-16.1c-1-5.5-4.5-8.9-9.5-11.4c-4.7-2.3-9-5.5-13.4-8.4c-4.7-3.1-9.3-6.5-14.2-9.2c-4.4-2.3-6.4-5.4-6.1-10.3
	c0.4-6,0.3-12,0.8-18c0.8-8.3-1.6-12-9.9-13.9c-9.2-2.1-18.5-4-28.2-6.1c1-8.5,1.9-16.2,2.7-24c0.3-2.8,0.6-5.7,0.4-8.4
	c-1.1-10.9,2.4-19.9,10.1-27.5c30.3-29.5,60.5-59.2,90.8-88.7c40.4-39.2,81-78.2,121.5-117.3c14.4-13.9,32.9-13.5,47,0.8
	c33.2,33.7,66.5,67.3,99.7,101c51.4,52.2,102.7,104.6,154.1,156.8c38.9,39.5,77.7,79.1,116.8,118.5c10.8,10.9,15.2,23,9.1,37.5
	c-1.8,4.3-5.1,8.2-8.4,11.6c-34.3,35.2-68.7,70.3-103.1,105.3c-48.4,49.4-96.8,98.7-145.2,148.1c-35.1,35.8-70.2,71.6-105.2,107.5
	c-4.2,4.4-8.8,6.7-14.7,4.8c-5.8-1.9-7.8-6.5-8.5-12.3c-2.8-23.7-6.8-47.1-14.7-69.7C3231-317.5,3224.4-330.6,3215.1-342z"/>
</svg>
